<?xml version="1.0" encoding="UTF-8"?>
<svg version="1.1" xmlns="http://www.w3.org/2000/svg" width="5000" height="5000">
<path d="M0 0 C1650 0 3300 0 5000 0 C5000 1650 5000 3300 5000 5000 C3350 5000 1700 5000 0 5000 C0 3350 0 1700 0 0 Z " fill="#000000" transform="translate(0,0)"/>
<path d="M0 0 C2.47789967 -0.00916511 4.95577939 -0.02756641 7.43355101 -0.05437249 C12.80959412 -0.09147289 18.17940712 -0.0637642 23.55446625 0.02202988 C31.54551093 0.14922293 39.53349112 0.15504409 47.52536359 0.13664811 C60.96982806 0.10910669 74.41211921 0.17902361 87.85595131 0.30501366 C101.16159142 0.42938825 114.46632577 0.5101208 127.77254295 0.53292274 C129.01475559 0.53508804 129.01475559 0.53508804 130.28206344 0.53729709 C134.48799301 0.54440235 138.69392338 0.55073131 142.89985462 0.55676148 C172.66991064 0.600839 202.43878502 0.74223353 232.20817566 0.94111633 C261.12380196 1.13407198 290.0391046 1.28278626 318.95524597 1.3717804 C320.29284936 1.37592347 320.29284936 1.37592347 321.65747505 1.38015024 C330.61287076 1.4078398 339.56826897 1.4346318 348.52366934 1.46076629 C366.76590871 1.51402291 385.00812701 1.5732692 403.25033569 1.63613892 C404.0890333 1.63902201 404.92773091 1.64190509 405.79184359 1.64487555 C461.77315738 1.83800217 517.75380077 2.17117886 573.73429871 2.52534485 C572.6357416 4.41885938 571.53587448 6.31161391 570.43547058 8.20405579 C569.82312561 9.2581665 569.21078064 10.31227722 568.57987976 11.39833069 C565.90631163 15.92822407 563.081348 20.35321696 560.23429871 24.77534485 C555.14520184 32.72542494 550.1037018 40.70292887 545.10929871 48.71284485 C539.16694191 58.23938348 533.19052929 67.74348677 527.18595886 77.23091125 C524.69956337 81.16080443 522.21717096 85.09322517 519.73429871 89.02534485 C518.73431707 90.60868978 517.73431709 92.19202312 516.73429871 93.77534485 C516.23929871 94.55909485 515.74429871 95.34284485 515.23429871 96.15034485 C510.73429873 103.27534482 510.73429873 103.27534482 509.23503113 105.64912415 C508.23251627 107.2364801 507.23007516 108.82388264 506.22770691 110.41133118 C503.76677908 114.3084988 501.30468159 118.20491585 498.83976746 122.0995636 C493.27758171 130.89140559 487.74379408 139.70037621 482.23429871 148.52534485 C476.24851531 158.11321944 470.23065292 167.68009008 464.18595886 177.23091125 C461.6995634 181.16080438 459.21712575 185.09319668 456.73429871 189.02534485 C453.77131735 193.71793178 450.80771066 198.41011289 447.83976746 203.0995636 C442.27758171 211.89140559 436.74379408 220.70037621 431.23429871 229.52534485 C425.24851531 239.11321944 419.23065292 248.68009008 413.18595886 258.23091125 C410.6995634 262.16080438 408.21712575 266.09319668 405.73429871 270.02534485 C402.77131735 274.71793178 399.80771066 279.41011289 396.83976746 284.0995636 C391.27758171 292.89140559 385.74379408 301.70037621 380.23429871 310.52534485 C374.24851531 320.11321944 368.23065292 329.68009008 362.18595886 339.23091125 C359.6995634 343.16080438 357.21712575 347.09319668 354.73429871 351.02534485 C351.77131735 355.71793178 348.80771066 360.41011289 345.83976746 365.0995636 C340.27758171 373.89140559 334.74379408 382.70037621 329.23429871 391.52534485 C323.24851531 401.11321944 317.23065292 410.68009008 311.18595886 420.23091125 C308.6995634 424.16080438 306.21712575 428.09319668 303.73429871 432.02534485 C300.77131735 436.71793178 297.80771066 441.41011289 294.83976746 446.0995636 C289.27758171 454.89140559 283.74379408 463.70037621 278.23429871 472.52534485 C272.24851531 482.11321944 266.23065292 491.68009008 260.18595886 501.23091125 C257.6995634 505.16080438 255.21712575 509.09319668 252.73429871 513.02534485 C249.77131735 517.71793178 246.80771066 522.41011289 243.83976746 527.0995636 C238.27758171 535.89140559 232.74379408 544.70037621 227.23429871 553.52534485 C221.24851531 563.11321944 215.23065292 572.68009008 209.18595886 582.23091125 C206.6995634 586.16080438 204.21712575 590.09319668 201.73429871 594.02534485 C198.77131735 598.71793178 195.80771066 603.41011289 192.83976746 608.0995636 C187.27758171 616.89140559 181.74379408 625.70037621 176.23429871 634.52534485 C170.24851531 644.11321944 164.23065292 653.68009008 158.18595886 663.23091125 C155.6995634 667.16080438 153.21712575 671.09319668 150.73429871 675.02534485 C147.77131735 679.71793178 144.80771066 684.41011289 141.83976746 689.0995636 C136.27758171 697.89140559 130.74379408 706.70037621 125.23429871 715.52534485 C119.24851531 725.11321944 113.23065292 734.68009008 107.18595886 744.23091125 C104.6995634 748.16080438 102.21712575 752.09319668 99.73429871 756.02534485 C96.77131735 760.71793178 93.80771066 765.41011289 90.83976746 770.0995636 C85.27758171 778.89140559 79.74379408 787.70037621 74.23429871 796.52534485 C68.24851531 806.11321944 62.23065292 815.68009008 56.18595886 825.23091125 C53.6995634 829.16080438 51.21712575 833.09319668 48.73429871 837.02534485 C45.77131735 841.71793178 42.80771066 846.41011289 39.83976746 851.0995636 C34.27758171 859.89140559 28.74379408 868.70037621 23.23429871 877.52534485 C17.24851531 887.11321944 11.23065292 896.68009008 5.18595886 906.23091125 C2.6995634 910.16080438 0.21712575 914.09319668 -2.26570129 918.02534485 C-5.22868265 922.71793178 -8.19228934 927.41011289 -11.16023254 932.0995636 C-16.72241829 940.89140559 -22.25620592 949.70037621 -27.76570129 958.52534485 C-33.75148469 968.11321944 -39.76934708 977.68009008 -45.81404114 987.23091125 C-48.30043663 991.16080443 -50.78282904 995.09322517 -53.26570129 999.02534485 C-54.26568293 1000.60868978 -55.26568291 1002.19202312 -56.26570129 1003.77534485 C-56.76070129 1004.55909485 -57.25570129 1005.34284485 -57.76570129 1006.15034485 C-62.2657013 1013.27534485 -62.2657013 1013.27534485 -63.76496887 1015.64912415 C-64.76748373 1017.2364801 -65.76992484 1018.82388264 -66.77229309 1020.41133118 C-69.23322092 1024.3084988 -71.69531841 1028.20491585 -74.16023254 1032.0995636 C-79.72241829 1040.89140559 -85.25620592 1049.70037621 -90.76570129 1058.52534485 C-96.75148469 1068.11321944 -102.76934708 1077.68009008 -108.81404114 1087.23091125 C-111.3004366 1091.16080438 -113.78287425 1095.09319668 -116.26570129 1099.02534485 C-119.22868265 1103.71793178 -122.19228934 1108.41011289 -125.16023254 1113.0995636 C-130.72241829 1121.89140559 -136.25620592 1130.70037621 -141.76570129 1139.52534485 C-147.75148469 1149.11321944 -153.76934708 1158.68009008 -159.81404114 1168.23091125 C-162.3004366 1172.16080438 -164.78287425 1176.09319668 -167.26570129 1180.02534485 C-170.22868265 1184.71793178 -173.19228934 1189.41011289 -176.16023254 1194.0995636 C-181.72241829 1202.89140559 -187.25620592 1211.70037621 -192.76570129 1220.52534485 C-198.75148469 1230.11321944 -204.76934708 1239.68009008 -210.81404114 1249.23091125 C-212.29512466 1251.57185019 -213.77480847 1253.91366772 -215.25398254 1256.2558136 C-215.75156067 1257.04351135 -216.24913879 1257.83120911 -216.76179504 1258.64277649 C-217.75621915 1260.21819611 -218.74972459 1261.79419601 -219.74226379 1263.37080383 C-222.3555029 1267.5186314 -224.9889516 1271.65174707 -227.65242004 1275.76753235 C-228.20478333 1276.6266925 -228.75714661 1277.48585266 -229.32624817 1278.37104797 C-230.3850326 1280.01705738 -231.44983749 1281.65921485 -232.52156067 1283.29682922 C-233.23602356 1284.41154602 -233.23602356 1284.41154602 -233.96492004 1285.54878235 C-234.38604065 1286.19766418 -234.80716125 1286.84654602 -235.24104309 1287.51509094 C-236.48015123 1289.94606936 -237.07376704 1291.79342822 -237.26570129 1294.52534485 C-236.20291478 1296.92329017 -236.20291478 1296.92329017 -234.42585754 1299.2011261 C-233.78277649 1300.09968323 -233.13969543 1300.99824036 -232.47712708 1301.92402649 C-231.76798157 1302.88558655 -231.05883606 1303.84714661 -230.32820129 1304.83784485 C-228.84539592 1306.90387817 -227.36500025 1308.97164271 -225.88679504 1311.04096985 C-225.12093079 1312.10766907 -224.35506653 1313.17436829 -223.56599426 1314.27339172 C-219.89145337 1319.46813643 -216.39298342 1324.77611344 -212.89070129 1330.08784485 C-208.23054607 1337.12667364 -203.51378016 1344.09996956 -198.56233215 1350.93696594 C-195.42690229 1355.27035725 -192.45531055 1359.69559509 -189.50788879 1364.15815735 C-186.74193658 1368.33130368 -183.90825608 1372.45802414 -181.07820129 1376.58784485 C-180.52285706 1377.39826233 -179.96751282 1378.20867981 -179.39533997 1379.0436554 C-178.25416243 1380.70841088 -177.11280334 1382.37304193 -175.9712677 1384.03755188 C-173.23313951 1388.03147204 -170.49958724 1392.02852021 -167.76570129 1396.02534485 C-166.68239132 1397.60869416 -165.59905795 1399.19202747 -164.51570129 1400.77534485 C-162.34903463 1403.94201152 -160.18236796 1407.10867818 -158.01570129 1410.27534485 C-157.47961243 1411.05885315 -156.94352356 1411.84236145 -156.39118958 1412.64961243 C-155.30620531 1414.2353712 -154.22124442 1415.82114598 -153.13630676 1417.40693665 C-150.45342285 1421.32829127 -147.77015323 1425.24938075 -145.08601379 1429.1698761 C-138.66581175 1438.54840654 -132.25737887 1447.93487061 -125.85652161 1457.32661438 C-120.20049889 1465.62415415 -114.53141284 1473.91270402 -108.85847473 1482.19868469 C-106.16009753 1486.1403669 -103.46296955 1490.08290375 -100.76570129 1494.02534485 C-99.68237379 1495.60868217 -98.59904046 1497.19201551 -97.51570129 1498.77534485 C-95.34903463 1501.94201152 -93.18236796 1505.10867818 -91.01570129 1508.27534485 C-90.47961243 1509.05885315 -89.94352356 1509.84236145 -89.39118958 1510.64961243 C-88.30620531 1512.2353712 -87.22124442 1513.82114598 -86.13630676 1515.40693665 C-83.45342285 1519.32829127 -80.77015323 1523.24938075 -78.08601379 1527.1698761 C-71.66581175 1536.54840654 -65.25737887 1545.93487061 -58.85652161 1555.32661438 C-53.20049889 1563.62415415 -47.53141284 1571.91270402 -41.85847473 1580.19868469 C-39.16009753 1584.1403669 -36.46296955 1588.08290375 -33.76570129 1592.02534485 C-32.68237379 1593.60868217 -31.59904046 1595.19201551 -30.51570129 1596.77534485 C-28.34903463 1599.94201152 -26.18236796 1603.10867818 -24.01570129 1606.27534485 C-23.47961243 1607.05885315 -22.94352356 1607.84236145 -22.39118958 1608.64961243 C-21.30620531 1610.2353712 -20.22124442 1611.82114598 -19.13630676 1613.40693665 C-16.45342285 1617.32829127 -13.77015323 1621.24938075 -11.08601379 1625.1698761 C-4.66581175 1634.54840654 1.74262113 1643.93487061 8.14347839 1653.32661438 C13.79950111 1661.62415415 19.46858716 1669.91270402 25.14152527 1678.19868469 C27.83990247 1682.1403669 30.53703045 1686.08290375 33.23429871 1690.02534485 C34.31762621 1691.60868217 35.40095954 1693.19201551 36.48429871 1694.77534485 C38.65096537 1697.94201152 40.81763204 1701.10867818 42.98429871 1704.27534485 C43.52038757 1705.05885315 44.05647644 1705.84236145 44.60881042 1706.64961243 C45.69379469 1708.2353712 46.77875558 1709.82114598 47.86369324 1711.40693665 C50.54657715 1715.32829127 53.22984677 1719.24938075 55.91398621 1723.1698761 C62.33418825 1732.54840654 68.74262113 1741.93487061 75.14347839 1751.32661438 C80.79950111 1759.62415415 86.46858716 1767.91270402 92.14152527 1776.19868469 C94.83990247 1780.1403669 97.53703045 1784.08290375 100.23429871 1788.02534485 C101.31762621 1789.60868217 102.40095954 1791.19201551 103.48429871 1792.77534485 C105.65096537 1795.94201152 107.81763204 1799.10867818 109.98429871 1802.27534485 C110.52038757 1803.05885315 111.05647644 1803.84236145 111.60881042 1804.64961243 C112.69379469 1806.2353712 113.77875558 1807.82114598 114.86369324 1809.40693665 C117.54657715 1813.32829127 120.22984677 1817.24938075 122.91398621 1821.1698761 C129.33418825 1830.54840654 135.74262113 1839.93487061 142.14347839 1849.32661438 C147.79950111 1857.62415415 153.46858716 1865.91270402 159.14152527 1874.19868469 C161.83990247 1878.1403669 164.53703045 1882.08290375 167.23429871 1886.02534485 C168.31762621 1887.60868217 169.40095954 1889.19201551 170.48429871 1890.77534485 C172.65096537 1893.94201152 174.81763204 1897.10867818 176.98429871 1900.27534485 C177.52038757 1901.05885315 178.05647644 1901.84236145 178.60881042 1902.64961243 C179.69379469 1904.2353712 180.77875558 1905.82114598 181.86369324 1907.40693665 C184.54657715 1911.32829127 187.22984677 1915.24938075 189.91398621 1919.1698761 C196.33418825 1928.54840654 202.74262113 1937.93487061 209.14347839 1947.32661438 C214.79950111 1955.62415415 220.46858716 1963.91270402 226.14152527 1972.19868469 C228.83990247 1976.1403669 231.53703045 1980.08290375 234.23429871 1984.02534485 C235.31762621 1985.60868217 236.40095954 1987.19201551 237.48429871 1988.77534485 C239.65096537 1991.94201152 241.81763204 1995.10867818 243.98429871 1998.27534485 C244.52038757 1999.05885315 245.05647644 1999.84236145 245.60881042 2000.64961243 C246.69379469 2002.2353712 247.77875558 2003.82114598 248.86369324 2005.40693665 C251.54657715 2009.32829127 254.22984677 2013.24938075 256.91398621 2017.1698761 C263.33418825 2026.54840654 269.74262113 2035.93487061 276.14347839 2045.32661438 C281.79950111 2053.62415415 287.46858716 2061.91270402 293.14152527 2070.19868469 C295.83990247 2074.1403669 298.53703045 2078.08290375 301.23429871 2082.02534485 C302.31762621 2083.60868217 303.40095954 2085.19201551 304.48429871 2086.77534485 C306.65096537 2089.94201152 308.81763204 2093.10867818 310.98429871 2096.27534485 C311.52038757 2097.05885315 312.05647644 2097.84236145 312.60881042 2098.64961243 C313.69379469 2100.2353712 314.77875558 2101.82114598 315.86369324 2103.40693665 C318.54657715 2107.32829127 321.22984677 2111.24938075 323.91398621 2115.1698761 C330.33418825 2124.54840654 336.74262113 2133.93487061 343.14347839 2143.32661438 C348.79950111 2151.62415415 354.46858716 2159.91270402 360.14152527 2168.19868469 C362.83990247 2172.1403669 365.53703045 2176.08290375 368.23429871 2180.02534485 C369.31762621 2181.60868217 370.40095954 2183.19201551 371.48429871 2184.77534485 C373.65096537 2187.94201152 375.81763204 2191.10867818 377.98429871 2194.27534485 C378.52038757 2195.05885315 379.05647644 2195.84236145 379.60881042 2196.64961243 C380.69379469 2198.2353712 381.77875558 2199.82114598 382.86369324 2201.40693665 C385.54657715 2205.32829127 388.22984677 2209.24938075 390.91398621 2213.1698761 C397.33212087 2222.54538654 403.73947121 2231.92816316 410.1368866 2241.31782532 C413.71857219 2246.57355459 417.3080545 2251.82380882 420.90544128 2257.06880188 C425.48145147 2263.74325612 430.04121069 2270.42809522 434.54679871 2277.15034485 C434.97388123 2277.78448303 435.40096375 2278.41862122 435.84098816 2279.07197571 C438.73429871 2283.40738561 438.73429871 2283.40738561 438.73429871 2284.52534485 C362.66258771 2284.868128 286.59078362 2285.18611861 210.51850891 2285.37220764 C208.82972306 2285.37634935 208.82972306 2285.37634935 207.10682032 2285.38057474 C182.63902211 2285.44043263 158.17121571 2285.4958363 133.70339709 2285.54665144 C121.70441847 2285.57159821 109.70544207 2285.59752928 97.70646667 2285.62397766 C95.91540138 2285.62790043 95.91540138 2285.62790043 94.08815295 2285.63190245 C55.38424977 2285.71713268 16.6809305 2285.86736041 -22.02261893 2286.05128926 C-61.79496427 2286.23995405 -101.56698648 2286.36305639 -141.33977175 2286.40364465 C-146.95712013 2286.40940776 -152.57446741 2286.4159205 -158.19181442 2286.42288971 C-159.29739089 2286.42423817 -160.40296735 2286.42558663 -161.54204613 2286.42697595 C-179.34047551 2286.45061249 -197.13790585 2286.54337704 -214.93592778 2286.66198553 C-232.82832904 2286.77974801 -250.71973976 2286.82470121 -268.61251499 2286.7953724 C-279.24446044 2286.78015702 -289.87278131 2286.82072385 -300.50407221 2286.94129571 C-307.60868189 2287.01636646 -314.71092211 2287.01857884 -321.81569623 2286.96198112 C-325.86414954 2286.93180449 -329.90576184 2286.93289006 -333.9534768 2287.0230085 C-357.28475703 2287.51295081 -357.28475703 2287.51295081 -363.90363559 2282.54563659 C-368.34354183 2277.86738332 -371.39822093 2272.65648275 -374.14164303 2266.85100135 C-375.60641501 2263.82041424 -377.38448202 2261.2063079 -379.32820129 2258.46284485 C-379.93406067 2257.54503235 -380.53992004 2256.62721985 -381.16413879 2255.68159485 C-385.56047022 2249.07892609 -390.07378952 2242.55482279 -394.56013489 2236.01313782 C-397.29826308 2232.01921765 -400.03181535 2228.02216948 -402.76570129 2224.02534485 C-403.84901127 2222.44199553 -404.93234464 2220.85866222 -406.01570129 2219.27534485 C-408.18236796 2216.10867818 -410.34903463 2212.94201152 -412.51570129 2209.77534485 C-413.05179016 2208.99183655 -413.58787903 2208.20832825 -414.14021301 2207.40107727 C-415.22519728 2205.81531849 -416.31015816 2204.22954372 -417.39509583 2202.64375305 C-420.07797974 2198.72239843 -422.76124936 2194.80130895 -425.44538879 2190.8808136 C-431.86559084 2181.50228316 -438.27402372 2172.11581908 -444.67488098 2162.72407532 C-450.3309037 2154.42653555 -455.99998975 2146.13798568 -461.67292786 2137.852005 C-464.37130506 2133.91032279 -467.06843303 2129.96778594 -469.76570129 2126.02534485 C-470.84902879 2124.44200752 -471.93236212 2122.85867419 -473.01570129 2121.27534485 C-475.18236796 2118.10867818 -477.34903463 2114.94201152 -479.51570129 2111.77534485 C-480.05179016 2110.99183655 -480.58787903 2110.20832825 -481.14021301 2109.40107727 C-482.22519728 2107.81531849 -483.31015816 2106.22954372 -484.39509583 2104.64375305 C-487.07797974 2100.72239843 -489.76124936 2096.80130895 -492.44538879 2092.8808136 C-498.86559084 2083.50228316 -505.27402372 2074.11581908 -511.67488098 2064.72407532 C-517.3309037 2056.42653555 -522.99998975 2048.13798568 -528.67292786 2039.852005 C-531.37130506 2035.91032279 -534.06843303 2031.96778594 -536.76570129 2028.02534485 C-537.84902879 2026.44200752 -538.93236212 2024.85867419 -540.01570129 2023.27534485 C-542.18236796 2020.10867818 -544.34903463 2016.94201152 -546.51570129 2013.77534485 C-547.05179016 2012.99183655 -547.58787903 2012.20832825 -548.14021301 2011.40107727 C-549.22519728 2009.81531849 -550.31015816 2008.22954372 -551.39509583 2006.64375305 C-554.07797974 2002.72239843 -556.76124936 1998.80130895 -559.44538879 1994.8808136 C-565.86559084 1985.50228316 -572.27402372 1976.11581908 -578.67488098 1966.72407532 C-584.3309037 1958.42653555 -589.99998975 1950.13798568 -595.67292786 1941.852005 C-598.37130506 1937.91032279 -601.06843303 1933.96778594 -603.76570129 1930.02534485 C-604.84902879 1928.44200752 -605.93236212 1926.85867419 -607.01570129 1925.27534485 C-609.18236796 1922.10867818 -611.34903463 1918.94201152 -613.51570129 1915.77534485 C-614.05179016 1914.99183655 -614.58787903 1914.20832825 -615.14021301 1913.40107727 C-616.22519728 1911.81531849 -617.31015816 1910.22954372 -618.39509583 1908.64375305 C-621.07797974 1904.72239843 -623.76124936 1900.80130895 -626.44538879 1896.8808136 C-632.22727105 1888.43473069 -638.00117228 1879.98328254 -643.76570129 1871.52534485 C-657.40210003 1851.44686536 -657.40210003 1851.44686536 -671.26570129 1831.52534485 C-674.43520126 1835.25956641 -676.87464965 1839.17594659 -679.20320129 1843.46284485 C-682.78768421 1849.94277668 -686.48540399 1856.34523432 -690.26570129 1862.71284485 C-695.3735585 1871.32360042 -700.45568481 1879.94892208 -705.51570129 1888.58784485 C-706.23900397 1889.82246669 -706.96231129 1891.05708582 -707.68562317 1892.29170227 C-709.14931355 1894.79023173 -710.61282338 1897.28886685 -712.07624817 1899.78755188 C-714.22710204 1903.459756 -716.37902579 1907.13133221 -718.53132629 1910.8026886 C-719.05585136 1911.69742134 -719.05585136 1911.69742134 -719.5909729 1912.61022949 C-721.00262381 1915.01815557 -722.41432488 1917.42605223 -723.82609558 1919.83390808 C-727.37865637 1925.89300526 -730.9308232 1931.95232843 -734.4788208 1938.01409912 C-741.77196062 1950.47431593 -749.08309031 1962.92296155 -756.45320129 1975.33784485 C-762.56680611 1985.63679168 -768.62272578 1995.96779734 -774.64851379 2006.3183136 C-778.61168678 2013.12434729 -782.59383479 2019.91920787 -786.57820129 2026.71284485 C-787.11197891 2027.62305389 -787.11197891 2027.62305389 -787.65653992 2028.551651 C-789.46832968 2031.64111525 -791.28029348 2034.73047737 -793.09236145 2037.81977844 C-796.29814734 2043.28536589 -799.50226308 2048.75193229 -802.70649719 2054.21842957 C-803.76682122 2056.02725535 -804.82727696 2057.83600386 -805.88777161 2059.64472961 C-809.08636495 2065.10026402 -812.28427103 2070.55619571 -815.4788208 2076.01409912 C-822.77196062 2088.47431593 -830.08309031 2100.92296155 -837.45320129 2113.33784485 C-843.56680611 2123.63679168 -849.62272578 2133.96779734 -855.64851379 2144.3183136 C-859.61168678 2151.12434729 -863.59383479 2157.91920787 -867.57820129 2164.71284485 C-867.93405304 2165.31965088 -868.28990479 2165.92645691 -868.65653992 2166.551651 C-870.46832968 2169.64111525 -872.28029348 2172.73047737 -874.09236145 2175.81977844 C-877.29814734 2181.28536589 -880.50226308 2186.75193229 -883.70649719 2192.21842957 C-884.76682122 2194.02725535 -885.82727696 2195.83600386 -886.88777161 2197.64472961 C-890.08636495 2203.10026402 -893.28427103 2208.55619571 -896.4788208 2214.01409912 C-903.77196062 2226.47431593 -911.08309031 2238.92296155 -918.45320129 2251.33784485 C-924.56680611 2261.63679168 -930.62272578 2271.96779734 -936.64851379 2282.3183136 C-940.61168678 2289.12434729 -944.59383479 2295.91920787 -948.57820129 2302.71284485 C-948.93405304 2303.31965088 -949.28990479 2303.92645691 -949.65653992 2304.551651 C-951.46832968 2307.64111525 -953.28029348 2310.73047737 -955.09236145 2313.81977844 C-958.29814734 2319.28536589 -961.50226308 2324.75193229 -964.70649719 2330.21842957 C-965.76682122 2332.02725535 -966.82727696 2333.83600386 -967.88777161 2335.64472961 C-971.08636495 2341.10026402 -974.28427103 2346.55619571 -977.4788208 2352.01409912 C-984.77196062 2364.47431593 -992.08309031 2376.92296155 -999.45320129 2389.33784485 C-1005.56680611 2399.63679168 -1011.62272578 2409.96779734 -1017.64851379 2420.3183136 C-1021.61168678 2427.12434729 -1025.59383479 2433.91920787 -1029.57820129 2440.71284485 C-1029.93405304 2441.31965088 -1030.28990479 2441.92645691 -1030.65653992 2442.551651 C-1032.46832968 2445.64111525 -1034.28029348 2448.73047737 -1036.09236145 2451.81977844 C-1039.29814734 2457.28536589 -1042.50226308 2462.75193229 -1045.70649719 2468.21842957 C-1046.76682122 2470.02725535 -1047.82727696 2471.83600386 -1048.88777161 2473.64472961 C-1052.08636495 2479.10026402 -1055.28427103 2484.55619571 -1058.4788208 2490.01409912 C-1066.42788901 2503.59495945 -1074.40733576 2517.15650635 -1082.44197083 2530.68696594 C-1086.89713738 2538.19640776 -1091.31201645 2545.72833159 -1095.70320129 2553.27534485 C-1099.63053397 2560.02320641 -1103.56810119 2566.76375395 -1107.57820129 2573.46284485 C-1107.94550354 2574.07804993 -1108.31280579 2574.693255 -1108.6912384 2575.32710266 C-1111.14156024 2579.40120379 -1111.14156024 2579.40120379 -1112.26570129 2580.52534485 C-1115.0219125 2580.62432472 -1117.75308547 2580.6571007 -1120.50978184 2580.64839268 C-1121.82844408 2580.65012344 -1121.82844408 2580.65012344 -1123.17374596 2580.65188918 C-1126.15823796 2580.65456366 -1129.14267741 2580.65002689 -1132.12716675 2580.64559937 C-1134.27292612 2580.6460349 -1136.41868545 2580.64690947 -1138.56444448 2580.64818853 C-1144.49101024 2580.65043703 -1150.4175581 2580.64640739 -1156.34412158 2580.64141047 C-1162.72385003 2580.63711121 -1169.10357739 2580.63855202 -1175.48330688 2580.63931274 C-1186.54664416 2580.63983831 -1197.60997546 2580.63672281 -1208.67331123 2580.63107491 C-1220.28061514 2580.62516445 -1231.8879167 2580.62131029 -1243.49522209 2580.62022209 C-1244.21605368 2580.62015335 -1244.93688526 2580.62008461 -1245.67956023 2580.62001379 C-1249.34007462 2580.61967547 -1253.00058902 2580.61937408 -1256.66110342 2580.61908691 C-1282.61044038 2580.61698469 -1308.55977427 2580.61024227 -1334.5091095 2580.6007843 C-1359.72362756 2580.59160474 -1384.93814479 2580.58451874 -1410.15266418 2580.58027649 C-1410.92944173 2580.58014496 -1411.70621928 2580.58001344 -1412.50653554 2580.57987793 C-1420.30702388 2580.57855944 -1428.10751222 2580.57728362 -1435.90800056 2580.57603907 C-1451.79948659 2580.57350263 -1467.69097255 2580.57068138 -1483.5824585 2580.56768799 C-1484.67853392 2580.56748205 -1484.67853392 2580.56748205 -1485.79675228 2580.56727196 C-1534.61973659 2580.55806625 -1583.44271909 2580.54219971 -1632.26570129 2580.52534485 C-1631.33184833 2578.79460543 -1630.39568061 2577.06511489 -1629.45857239 2575.33613586 C-1628.67696243 2573.89126549 -1628.67696243 2573.89126549 -1627.87956238 2572.41720581 C-1625.40195199 2567.97760142 -1622.65629745 2563.72677312 -1619.89070129 2559.46284485 C-1614.54513695 2551.14488169 -1609.30647361 2542.76861769 -1604.14070129 2534.33784485 C-1599.07015945 2526.06809726 -1593.96150012 2517.82677019 -1588.76643372 2509.63471985 C-1584.80359335 2503.38467842 -1580.87318286 2497.11485065 -1576.95320129 2490.83784485 C-1576.32276917 2489.82834778 -1575.69233704 2488.81885071 -1575.0428009 2487.77876282 C-1573.7580998 2485.72121713 -1572.47351385 2483.66359953 -1571.18904114 2481.60591125 C-1568.04980904 2476.57787996 -1564.90759297 2471.55171448 -1561.76570129 2466.52534485 C-1561.14864319 2465.53792297 -1560.53158508 2464.5505011 -1559.89582825 2463.53315735 C-1556.7470879 2458.49451586 -1553.59724405 2453.45656976 -1550.44538879 2448.4198761 C-1544.53166633 2438.96761478 -1538.62793618 2429.509642 -1532.76570129 2420.02534485 C-1526.27142352 2409.51848845 -1519.72527622 2399.04439758 -1513.17292786 2388.57368469 C-1510.03528566 2383.55875889 -1506.90062996 2378.5419672 -1503.76570129 2373.52534485 C-1502.51571593 2371.5253357 -1501.26571592 2369.52533571 -1500.01570129 2367.52534485 C-1499.39695129 2366.53534485 -1498.77820129 2365.54534485 -1498.14070129 2364.52534485 C-1477.5157013 2331.52534486 -1477.5157013 2331.52534486 -1475.64094543 2328.52583313 C-1474.39001461 2326.52427866 -1473.13920094 2324.52265096 -1471.88850403 2322.52095032 C-1468.77869861 2317.54412889 -1465.66691798 2312.56856517 -1462.55085754 2307.59565735 C-1456.01585065 2297.16143253 -1449.51974502 2286.70506667 -1443.07820129 2276.21284485 C-1438.02671533 2267.98589738 -1432.93621696 2259.78716976 -1427.76618958 2251.63423157 C-1423.80331881 2245.38442363 -1419.87308682 2239.11469686 -1415.95320129 2232.83784485 C-1415.32276917 2231.82834778 -1414.69233704 2230.81885071 -1414.0428009 2229.77876282 C-1412.7580998 2227.72121713 -1411.47351385 2225.66359953 -1410.18904114 2223.60591125 C-1407.04980904 2218.57787996 -1403.90759297 2213.55171448 -1400.76570129 2208.52534485 C-1400.14864319 2207.53792297 -1399.53158508 2206.5505011 -1398.89582825 2205.53315735 C-1395.7470879 2200.49451586 -1392.59724405 2195.45656976 -1389.44538879 2190.4198761 C-1383.53166633 2180.96761478 -1377.62793618 2171.509642 -1371.76570129 2162.02534485 C-1365.27142352 2151.51848845 -1358.72527622 2141.04439758 -1352.17292786 2130.57368469 C-1349.03528566 2125.55875889 -1345.90062996 2120.5419672 -1342.76570129 2115.52534485 C-1341.51571593 2113.5253357 -1340.26571592 2111.52533571 -1339.01570129 2109.52534485 C-1338.39695129 2108.53534485 -1337.77820129 2107.54534485 -1337.14070129 2106.52534485 C-1316.51570128 2073.52534483 -1316.51570128 2073.52534483 -1314.64094543 2070.52583313 C-1313.39001461 2068.52427866 -1312.13920094 2066.52265096 -1310.88850403 2064.52095032 C-1307.77869861 2059.54412889 -1304.66691798 2054.56856517 -1301.55085754 2049.59565735 C-1295.01585065 2039.16143253 -1288.51974502 2028.70506667 -1282.07820129 2018.21284485 C-1277.02671533 2009.98589738 -1271.93621696 2001.78716976 -1266.76618958 1993.63423157 C-1262.80331881 1987.38442363 -1258.87308682 1981.11469686 -1254.95320129 1974.83784485 C-1254.32276917 1973.82834778 -1253.69233704 1972.81885071 -1253.0428009 1971.77876282 C-1251.7580998 1969.72121713 -1250.47351385 1967.66359953 -1249.18904114 1965.60591125 C-1246.04980904 1960.57787996 -1242.90759297 1955.55171448 -1239.76570129 1950.52534485 C-1239.14864319 1949.53792297 -1238.53158508 1948.5505011 -1237.89582825 1947.53315735 C-1234.7470879 1942.49451586 -1231.59724405 1937.45656976 -1228.44538879 1932.4198761 C-1222.53166633 1922.96761478 -1216.62793618 1913.509642 -1210.76570129 1904.02534485 C-1204.27142352 1893.51848845 -1197.72527622 1883.04439758 -1191.17292786 1872.57368469 C-1188.03528566 1867.55875889 -1184.90062996 1862.5419672 -1181.76570129 1857.52534485 C-1180.51571593 1855.5253357 -1179.26571592 1853.52533571 -1178.01570129 1851.52534485 C-1177.39695129 1850.53534485 -1176.77820129 1849.54534485 -1176.14070129 1848.52534485 C-1155.51570129 1815.52534484 -1155.51570129 1815.52534484 -1153.64094543 1812.52583313 C-1152.39001461 1810.52427866 -1151.13920094 1808.52265096 -1149.88850403 1806.52095032 C-1146.77869861 1801.54412889 -1143.66691798 1796.56856517 -1140.55085754 1791.59565735 C-1134.01585065 1781.16143253 -1127.51974502 1770.70506667 -1121.07820129 1760.21284485 C-1116.02671533 1751.98589738 -1110.93621696 1743.78716976 -1105.76618958 1735.63423157 C-1101.80331881 1729.38442363 -1097.87308682 1723.11469686 -1093.95320129 1716.83784485 C-1093.32276917 1715.82834778 -1092.69233704 1714.81885071 -1092.0428009 1713.77876282 C-1090.7580998 1711.72121713 -1089.47351385 1709.66359953 -1088.18904114 1707.60591125 C-1085.04980906 1702.57787998 -1081.90762978 1697.55169144 -1078.76570129 1692.52534485 C-1077.51568666 1690.525354 -1076.26568667 1688.52535399 -1075.01570129 1686.52534485 C-1067.5157013 1674.52534485 -1067.5157013 1674.52534485 -1065.64094543 1671.52583313 C-1064.39001461 1669.52427866 -1063.13920094 1667.52265096 -1061.88850403 1665.52095032 C-1058.77869861 1660.54412889 -1055.66691798 1655.56856517 -1052.55085754 1650.59565735 C-1046.01585065 1640.16143253 -1039.51974502 1629.70506667 -1033.07820129 1619.21284485 C-1028.02671533 1610.98589738 -1022.93621696 1602.78716976 -1017.76618958 1594.63423157 C-1013.80331881 1588.38442363 -1009.87308682 1582.11469686 -1005.95320129 1575.83784485 C-1005.32276917 1574.82834778 -1004.69233704 1573.81885071 -1004.0428009 1572.77876282 C-1002.7580998 1570.72121713 -1001.47351385 1568.66359953 -1000.18904114 1566.60591125 C-997.67217311 1562.57470527 -995.15338335 1558.54470224 -992.63435364 1554.5148468 C-991.38580545 1552.51739808 -990.13743383 1550.51983898 -988.88923645 1548.52217102 C-985.77921575 1543.54492462 -982.66716991 1538.56896722 -979.55085754 1533.59565735 C-973.01585065 1523.16143253 -966.51974502 1512.70506667 -960.07820129 1502.21284485 C-955.02671533 1493.98589738 -949.93621696 1485.78716976 -944.76618958 1477.63423157 C-940.80331881 1471.38442363 -936.87308682 1465.11469686 -932.95320129 1458.83784485 C-932.32276917 1457.82834778 -931.69233704 1456.81885071 -931.0428009 1455.77876282 C-929.7580998 1453.72121713 -928.47351385 1451.66359953 -927.18904114 1449.60591125 C-924.04980906 1444.57787998 -920.90762978 1439.55169144 -917.76570129 1434.52534485 C-916.51568666 1432.525354 -915.26568667 1430.52535399 -914.01570129 1428.52534485 C-906.5157013 1416.52534485 -906.5157013 1416.52534485 -904.64094543 1413.52583313 C-903.39001461 1411.52427866 -902.13920094 1409.52265096 -900.88850403 1407.52095032 C-897.77869861 1402.54412889 -894.66691798 1397.56856517 -891.55085754 1392.59565735 C-885.01585065 1382.16143253 -878.51974502 1371.70506667 -872.07820129 1361.21284485 C-867.02947469 1352.99039133 -861.94107089 1344.79659453 -856.77497864 1336.64741516 C-852.72956113 1330.26594994 -848.71019819 1323.86850605 -844.70320129 1317.46284485 C-844.07115784 1316.45310608 -843.43911438 1315.44336731 -842.78791809 1314.4030304 C-839.82092425 1309.65345836 -836.87227857 1304.89456142 -833.97273254 1300.10346985 C-833.47007874 1299.27339417 -832.96742493 1298.44331848 -832.44953918 1297.58808899 C-831.52146299 1296.05067143 -830.59721255 1294.51093516 -829.67756653 1292.96846008 C-829.26836975 1292.28984924 -828.85917297 1291.6112384 -828.43757629 1290.9120636 C-828.08791809 1290.32642639 -827.73825989 1289.74078918 -827.37800598 1289.1374054 C-826.26570129 1287.52534485 -826.26570129 1287.52534485 -824.8318634 1286.13032532 C-822.84348878 1284.09266751 -821.51580547 1281.89116969 -820.03523254 1279.4589386 C-819.40552551 1278.42962219 -818.77581848 1277.40030579 -818.12702942 1276.33979797 C-817.45091614 1275.22540344 -816.77480286 1274.11100891 -816.07820129 1272.96284485 C-815.36315319 1271.79134813 -814.64765059 1270.62012871 -813.93171692 1269.44917297 C-812.44443733 1267.01583725 -810.95912265 1264.58131867 -809.47517395 1262.14595032 C-806.09028966 1256.59451807 -802.6765749 1251.060831 -799.26570129 1245.52534485 C-797.93612847 1243.3652783 -796.60670198 1241.20512167 -795.27742004 1239.0448761 C-794.61790344 1237.97318176 -793.95838684 1236.90148743 -793.27888489 1235.7973175 C-791.23884682 1232.481699 -789.19946573 1229.16567719 -787.16023254 1225.8495636 C-780.52175248 1215.05569907 -773.87413021 1204.26774994 -767.19856262 1193.4967804 C-762.87341577 1186.51501392 -758.56781648 1179.52132218 -754.26570129 1172.52534485 C-749.38027797 1164.58137333 -744.48849936 1156.64146818 -739.57820129 1148.71284485 C-739.05282776 1147.86448059 -738.52745422 1147.01611633 -737.98616028 1146.14204407 C-735.34705575 1141.8817928 -732.70570773 1137.62294255 -730.06257629 1133.3651886 C-724.46307015 1124.33957409 -718.90004279 1115.29381263 -713.39070129 1106.21284485 C-708.00202832 1097.33399402 -702.5268382 1088.51282072 -697.01008606 1079.71308899 C-690.37594348 1069.12356625 -683.83383004 1058.4780919 -677.29499817 1047.82954407 C-673.89219007 1042.28892751 -670.48546487 1036.75072227 -667.07820129 1031.21284485 C-666.41054749 1030.12761536 -665.74289368 1029.04238586 -665.05500793 1027.92427063 C-660.44678217 1020.43682314 -655.82309015 1012.95909583 -651.19197083 1005.48579407 C-644.19007349 994.18196533 -637.23061133 982.85198443 -630.26570129 971.52534485 C-622.25746003 958.50199465 -614.24519148 945.48138843 -606.19197083 932.48579407 C-599.19007349 921.18196533 -592.23061133 909.85198443 -585.26570129 898.52534485 C-577.25969823 885.50563451 -569.25033635 872.48824643 -561.19856262 859.4967804 C-556.87341583 852.51501402 -552.56778879 845.52133913 -548.26570129 838.52534485 C-543.44417753 830.6846506 -538.61466277 822.84910151 -533.76570129 815.02534485 C-526.23699212 802.8763476 -518.75227466 790.70033602 -511.26570129 778.52534485 C-503.25969823 765.50563451 -495.25033635 752.48824643 -487.19856262 739.4967804 C-482.87341583 732.51501402 -478.56778879 725.52133913 -474.26570129 718.52534485 C-469.44417753 710.6846506 -464.61466277 702.84910151 -459.76570129 695.02534485 C-452.23699212 682.8763476 -444.75227466 670.70033602 -437.26570129 658.52534485 C-429.25746003 645.50199465 -421.24519148 632.48138843 -413.19197083 619.48579407 C-406.19007349 608.18196533 -399.23061133 596.85198443 -392.26570129 585.52534485 C-384.25969823 572.50563451 -376.25033635 559.48824643 -368.19856262 546.4967804 C-363.87341583 539.51501402 -359.56778879 532.52133913 -355.26570129 525.52534485 C-350.44417753 517.6846506 -345.61466277 509.84910151 -340.76570129 502.02534485 C-333.23699212 489.8763476 -325.75227466 477.70033602 -318.26570129 465.52534485 C-310.25746003 452.50199465 -302.24519148 439.48138843 -294.19197083 426.48579407 C-287.19007349 415.18196533 -280.23061133 403.85198443 -273.26570129 392.52534485 C-265.25969823 379.50563451 -257.25033635 366.48824643 -249.19856262 353.4967804 C-244.87341583 346.51501402 -240.56778879 339.52133913 -236.26570129 332.52534485 C-231.44417753 324.6846506 -226.61466277 316.84910151 -221.76570129 309.02534485 C-214.23699212 296.8763476 -206.75227466 284.70033602 -199.26570129 272.52534485 C-191.25746003 259.50199465 -183.24519148 246.48138843 -175.19197083 233.48579407 C-168.19007349 222.18196533 -161.23061133 210.85198443 -154.26570129 199.52534485 C-146.25969823 186.50563451 -138.25033635 173.48824643 -130.19856262 160.4967804 C-125.87341583 153.51501402 -121.56778879 146.52133913 -117.26570129 139.52534485 C-112.44417753 131.6846506 -107.61466277 123.84910151 -102.76570129 116.02534485 C-95.9353092 105.00321438 -89.14161809 93.95859848 -82.34919739 82.91304016 C-78.8225874 77.17888969 -75.2940419 71.44593053 -71.76570129 65.71284485 C-70.50527569 63.66467326 -69.24485873 61.61649636 -67.98445129 59.5683136 C-64.07820129 53.22065735 -60.17195129 46.8730011 -56.26570129 40.52534485 C-53.88006052 41.10118917 -51.59887345 41.7476208 -49.26570129 42.52534485 C-47.53468223 39.79734945 -45.80630628 37.06768698 -44.07820129 34.33784485 C-43.61478333 33.60759094 -43.15136536 32.87733704 -42.67390442 32.12495422 C-41.92463684 30.94062805 -41.92463684 30.94062805 -41.16023254 29.7323761 C-40.59421819 28.88017744 -40.02820384 28.02797879 -39.44503754 27.14995593 C-37.66264916 24.33829464 -36.28047428 21.4393103 -34.89471704 18.41422111 C-26.49154668 1.20374371 -18.30397145 -0.50355622 0 0 Z " fill="#FEA400" transform="translate(3148.2657012939453,1417.4746551513672)"/>
<path d="M0 0 C82.06744354 -0.18848191 164.13491321 -0.36338339 246.20251465 -0.46577454 C248.02364861 -0.46805248 248.02364861 -0.46805248 249.88157315 -0.47037644 C276.26524421 -0.5032963 302.64891757 -0.5337686 329.03259435 -0.56171862 C341.97062331 -0.57543966 354.90865164 -0.5897017 367.84667969 -0.60424805 C369.13418802 -0.6056864 370.42169635 -0.60712475 371.74822008 -0.60860668 C413.50094908 -0.65550474 455.25351463 -0.73814634 497.00614456 -0.83926943 C539.902485 -0.94297415 582.79873493 -1.01072734 625.69519862 -1.03306489 C631.75016336 -1.03623472 637.8051278 -1.03981673 643.86009216 -1.04364967 C645.05182849 -1.04439133 646.24356482 -1.04513298 647.47141438 -1.04589711 C666.67659872 -1.05891008 685.8815037 -1.10996629 705.086574 -1.17515237 C724.38122334 -1.23983414 743.67559499 -1.2646675 762.97034901 -1.24851515 C774.44236338 -1.240131 785.91336352 -1.26260896 797.38519526 -1.32877297 C805.04226981 -1.36992893 812.69867793 -1.37136747 820.35579794 -1.34014995 C824.7231989 -1.32349223 829.08867821 -1.32444477 833.45587546 -1.37371501 C837.42864801 -1.41819597 841.3979986 -1.41212396 845.37071775 -1.36553973 C846.79948211 -1.35767588 848.22849696 -1.36830817 849.65694053 -1.39958769 C860.25741949 -1.61701539 860.25741949 -1.61701539 864.5386793 2.35574969 C866.59985791 5.15296364 868.31343061 7.96551764 870 11 C871.18553192 12.75072629 872.38509713 14.49212856 873.60546875 16.21875 C874.80117978 17.97801201 875.9951472 19.73846019 877.1875 21.5 C878.50115626 23.43369282 879.81496097 25.3672848 881.12890625 27.30078125 C881.77875488 28.25807129 882.42860352 29.21536133 883.09814453 30.20166016 C885.93110252 34.36999963 888.77730031 38.52922361 891.625 42.6875 C892.15456299 43.4611792 892.68412598 44.2348584 893.22973633 45.03198242 C894.81963534 47.35478432 896.40978084 49.67741727 898 52 C905.48089724 62.92616866 912.95166251 73.85912732 920.40917969 84.80126953 C926.06520241 93.0988093 931.73428845 101.38735917 937.40722656 109.67333984 C940.10560377 113.61502205 942.80273174 117.5575589 945.5 121.5 C946.5833275 123.08333732 947.66666083 124.66667066 948.75 126.25 C950.91666667 129.41666667 953.08333333 132.58333333 955.25 135.75 C955.78608887 136.5335083 956.32217773 137.3170166 956.87451172 138.12426758 C957.95949599 139.71002635 959.04445687 141.29580113 960.12939453 142.8815918 C962.81227845 146.80294642 965.49554807 150.7240359 968.1796875 154.64453125 C974.59988955 164.02306169 981.00832242 173.40952577 987.40917969 182.80126953 C993.06520241 191.0988093 998.73428845 199.38735917 1004.40722656 207.67333984 C1007.10560377 211.61502205 1009.80273174 215.5575589 1012.5 219.5 C1013.5833275 221.08333732 1014.66666083 222.66667066 1015.75 224.25 C1022.25 233.75 1028.75 243.25 1035.25 252.75 C1035.78608887 253.5335083 1036.32217773 254.3170166 1036.87451172 255.12426758 C1037.95949599 256.71002635 1039.04445687 258.29580113 1040.12939453 259.8815918 C1042.81227845 263.80294642 1045.49554807 267.7240359 1048.1796875 271.64453125 C1054.59988955 281.02306169 1061.00832242 290.40952577 1067.40917969 299.80126953 C1073.06520241 308.0988093 1078.73428845 316.38735917 1084.40722656 324.67333984 C1087.10560377 328.61502205 1089.80273174 332.5575589 1092.5 336.5 C1093.5833275 338.08333732 1094.66666083 339.66667066 1095.75 341.25 C1097.91666667 344.41666667 1100.08333333 347.58333333 1102.25 350.75 C1102.78592773 351.5332666 1103.32185547 352.3165332 1103.87402344 353.12353516 C1104.96065863 354.71171938 1106.04724695 356.29993569 1107.13378906 357.88818359 C1109.79122637 361.7725586 1112.44939373 365.65642905 1115.109375 369.5390625 C1121.29925576 378.57636575 1127.46900821 387.62707331 1133.625 396.6875 C1139.17455837 404.85482088 1144.74235928 413.00879072 1150.34375 421.140625 C1158.74422234 433.33770721 1167.0819007 445.57813554 1175.41967773 457.81811523 C1178.34158198 462.10639645 1181.2665869 466.39237403 1184.20703125 470.66796875 C1185.24228492 472.17441222 1186.27744165 473.68092232 1187.3125 475.1875 C1187.82232422 475.92887207 1188.33214844 476.67024414 1188.85742188 477.43408203 C1192.16462837 482.2626439 1195.41460248 487.12620082 1198.63671875 492.01171875 C1199.44944052 493.2413071 1200.26218472 494.47088063 1201.07495117 495.70043945 C1202.66385546 498.10480452 1204.24475534 500.51418404 1205.8215332 502.92651367 C1206.55783278 504.04233494 1207.29439333 505.15798405 1208.03125 506.2734375 C1208.67642578 507.25747559 1209.32160156 508.24151367 1209.98632812 509.25537109 C1212.09894475 512.13486141 1214.44867624 514.50872614 1217 517 C1218.4765625 519.3515625 1218.4765625 519.3515625 1219.625 521.625 C1221.14168279 524.60747019 1222.61740049 526.67020048 1225 529 C1225.4640625 530.2065625 1225.4640625 530.2065625 1225.9375 531.4375 C1226.81871377 534.04745221 1226.81871377 534.04745221 1228.72265625 535.65234375 C1231.81374514 538.83886935 1234.08122216 542.4147838 1236.5 546.125 C1237.57935261 547.76176786 1238.65878171 549.39848529 1239.73828125 551.03515625 C1240.28436035 551.8667627 1240.83043945 552.69836914 1241.39306641 553.55517578 C1243.81074744 557.23348904 1246.24693085 560.89934503 1248.6875 564.5625 C1249.41078491 565.64857544 1249.41078491 565.64857544 1250.14868164 566.7565918 C1260.03858041 581.5763808 1270.11966511 596.26909965 1280.18725586 610.96850586 C1284.29980779 616.9733559 1288.4013817 622.98563241 1292.5 629 C1298.79175033 638.23176045 1305.09591652 647.4549433 1311.40722656 656.67333984 C1314.10560377 660.61502205 1316.80273174 664.5575589 1319.5 668.5 C1320.5833275 670.08333732 1321.66666083 671.66667066 1322.75 673.25 C1324.91666667 676.41666667 1327.08333333 679.58333333 1329.25 682.75 C1329.78608887 683.5335083 1330.32217773 684.3170166 1330.87451172 685.12426758 C1331.95949599 686.71002635 1333.04445687 688.29580113 1334.12939453 689.8815918 C1336.81227845 693.80294642 1339.49554807 697.7240359 1342.1796875 701.64453125 C1348.59988955 711.02306169 1355.00832242 720.40952577 1361.40917969 729.80126953 C1367.06520241 738.0988093 1372.73428845 746.38735917 1378.40722656 754.67333984 C1381.10560377 758.61502205 1383.80273174 762.5575589 1386.5 766.5 C1387.5833275 768.08333732 1388.66666083 769.66667066 1389.75 771.25 C1396.25 780.75 1402.75 790.25 1409.25 799.75 C1409.78608887 800.5335083 1410.32217773 801.3170166 1410.87451172 802.12426758 C1411.95949599 803.71002635 1413.04445687 805.29580113 1414.12939453 806.8815918 C1416.81227845 810.80294642 1419.49554807 814.7240359 1422.1796875 818.64453125 C1428.59988955 828.02306169 1435.00832242 837.40952577 1441.40917969 846.80126953 C1447.06520241 855.0988093 1452.73428845 863.38735917 1458.40722656 871.67333984 C1461.10560377 875.61502205 1463.80273174 879.5575589 1466.5 883.5 C1467.5833275 885.08333732 1468.66666083 886.66667066 1469.75 888.25 C1476.25 897.75 1482.75 907.25 1489.25 916.75 C1489.78608887 917.5335083 1490.32217773 918.3170166 1490.87451172 919.12426758 C1491.95949599 920.71002635 1493.04445687 922.29580113 1494.12939453 923.8815918 C1496.81227845 927.80294642 1499.49554807 931.7240359 1502.1796875 935.64453125 C1508.59988955 945.02306169 1515.00832242 954.40952577 1521.40917969 963.80126953 C1527.06520241 972.0988093 1532.73428845 980.38735917 1538.40722656 988.67333984 C1541.10560377 992.61502205 1543.80273174 996.5575589 1546.5 1000.5 C1547.5833275 1002.08333732 1548.66666083 1003.66667066 1549.75 1005.25 C1551.91666667 1008.41666667 1554.08333333 1011.58333333 1556.25 1014.75 C1556.78608887 1015.5335083 1557.32217773 1016.3170166 1557.87451172 1017.12426758 C1558.95949599 1018.71002635 1560.04445687 1020.29580113 1561.12939453 1021.8815918 C1564.34421613 1026.58043673 1567.55930385 1031.27909806 1570.77685547 1035.97607422 C1571.83778388 1037.52711071 1572.89672206 1039.0795105 1573.95361328 1040.63330078 C1576.98867566 1045.09055932 1580.06575202 1049.51307737 1583.1875 1053.91015625 C1583.88439941 1054.90297607 1584.58129883 1055.8957959 1585.29931641 1056.91870117 C1586.65936097 1058.85574888 1588.0310604 1060.78467743 1589.41552734 1062.7043457 C1590.0286377 1063.5830835 1590.64174805 1064.46182129 1591.2734375 1065.3671875 C1592.09980713 1066.52903564 1592.09980713 1066.52903564 1592.94287109 1067.71435547 C1594.30915809 1070.66843834 1594.03118965 1071.94232689 1593 1075 C1591.74755859 1077.38989258 1591.74755859 1077.38989258 1590.1484375 1079.89453125 C1589.55224609 1080.83748047 1588.95605469 1081.78042969 1588.34179688 1082.75195312 C1587.69275391 1083.76193359 1587.04371094 1084.77191406 1586.375 1085.8125 C1584.99719427 1087.9855493 1583.61959579 1090.15873001 1582.2421875 1092.33203125 C1581.53545898 1093.44143066 1580.82873047 1094.55083008 1580.10058594 1095.69384766 C1576.8707113 1100.77740906 1573.6862786 1105.88904716 1570.5 1111 C1569.25024913 1113.00015568 1568.0002483 1115.00015521 1566.75 1117 C1566.13125 1117.99 1565.5125 1118.98 1564.875 1120 C1559.24999997 1129.00000004 1559.24999997 1129.00000004 1557.37451172 1132.00073242 C1556.12608079 1133.99825443 1554.87770827 1135.99581295 1553.62939453 1137.9934082 C1550.48086882 1143.03162434 1547.33129107 1148.06917728 1544.1796875 1153.10546875 C1538.26596504 1162.55773007 1532.36223489 1172.01570285 1526.5 1181.5 C1520.00572223 1192.00685639 1513.45957493 1202.48094727 1506.90722656 1212.95166016 C1503.76958437 1217.96658596 1500.63492867 1222.98337765 1497.5 1228 C1496.25001463 1230.00000915 1495.00001463 1232.00000914 1493.75 1234 C1493.13125 1234.99 1492.5125 1235.98 1491.875 1237 C1471.25000001 1269.99999999 1471.25000001 1269.99999999 1469.37524414 1272.99951172 C1468.12431331 1275.00106619 1466.87349965 1277.00269389 1465.62280273 1279.00439453 C1462.51299731 1283.98121596 1459.40121669 1288.95677968 1456.28515625 1293.9296875 C1449.75014935 1304.36391232 1443.25404372 1314.82027818 1436.8125 1325.3125 C1431.76101404 1333.53944747 1426.67051567 1341.73817508 1421.50048828 1349.89111328 C1417.53761752 1356.14092122 1413.60738552 1362.41064799 1409.6875 1368.6875 C1409.05706787 1369.69699707 1408.42663574 1370.70649414 1407.77709961 1371.74658203 C1406.4923985 1373.80412772 1405.20781255 1375.86174532 1403.92333984 1377.91943359 C1401.40647182 1381.95063958 1398.88768205 1385.98064261 1396.36865234 1390.01049805 C1395.12010416 1392.00794677 1393.87173253 1394.00550587 1392.62353516 1396.00317383 C1389.51351445 1400.98042023 1386.40146862 1405.95637763 1383.28515625 1410.9296875 C1376.75014935 1421.36391232 1370.25404372 1431.82027818 1363.8125 1442.3125 C1358.76101404 1450.53944747 1353.67051567 1458.73817508 1348.50048828 1466.89111328 C1344.53761752 1473.14092122 1340.60738552 1479.41064799 1336.6875 1485.6875 C1336.05706787 1486.69699707 1335.42663574 1487.70649414 1334.77709961 1488.74658203 C1333.4923985 1490.80412772 1332.20781255 1492.86174532 1330.92333984 1494.91943359 C1327.78410775 1499.94746489 1324.64189167 1504.97363037 1321.5 1510 C1320.88294189 1510.98742188 1320.26588379 1511.97484375 1319.63012695 1512.9921875 C1316.4813866 1518.03082899 1313.33154276 1523.06877508 1310.1796875 1528.10546875 C1304.26596504 1537.55773007 1298.36223489 1547.01570285 1292.5 1556.5 C1286.00572223 1567.00685639 1279.45957493 1577.48094727 1272.90722656 1587.95166016 C1269.76958437 1592.96658596 1266.63492867 1597.98337765 1263.5 1603 C1262.25001463 1605.00000915 1261.00001463 1607.00000914 1259.75 1609 C1259.13125 1609.99 1258.5125 1610.98 1257.875 1612 C1252.25 1620.99999999 1252.25 1620.99999999 1250.37451172 1624.00073242 C1249.12608079 1625.99825443 1247.87770827 1627.99581295 1246.62939453 1629.9934082 C1243.48086882 1635.03162434 1240.33129107 1640.06917728 1237.1796875 1645.10546875 C1231.2659644 1654.55773109 1225.362389 1664.01579739 1219.5 1673.5 C1213.0066872 1684.00186322 1206.48126421 1694.48324819 1199.91699219 1704.94091797 C1198.60997543 1707.02661842 1197.30606597 1709.11426852 1196.00488281 1711.20361328 C1194.07232428 1714.30657463 1192.13087136 1717.40380264 1190.1875 1720.5 C1189.59461182 1721.45640381 1189.00172363 1722.41280762 1188.39086914 1723.39819336 C1187.56897095 1724.7015564 1187.56897095 1724.7015564 1186.73046875 1726.03125 C1186.24989014 1726.80017578 1185.76931152 1727.56910156 1185.27416992 1728.36132812 C1184.85369385 1728.90208984 1184.43321777 1729.44285156 1184 1730 C1183.34 1730 1182.68 1730 1182 1730 C1180.58203125 1728.1484375 1180.58203125 1728.1484375 1178.8125 1725.375 C1174.88944531 1719.34117132 1170.87452465 1713.37874579 1166.8125 1707.4375 C1166.164021 1706.4875415 1165.51554199 1705.53758301 1164.84741211 1704.55883789 C1159.10226318 1696.14373835 1153.34894949 1687.73421945 1147.59277344 1679.32666016 C1144.89439623 1675.38497795 1142.19726826 1671.4424411 1139.5 1667.5 C1138.4166725 1665.91666268 1137.33333917 1664.33332934 1136.25 1662.75 C1134.08333333 1659.58333333 1131.91666667 1656.41666667 1129.75 1653.25 C1129.21391113 1652.4664917 1128.67782227 1651.6829834 1128.12548828 1650.87573242 C1127.04050401 1649.28997365 1125.95554313 1647.70419887 1124.87060547 1646.1184082 C1122.18772155 1642.19705358 1119.50445193 1638.2759641 1116.8203125 1634.35546875 C1110.40011045 1624.97693831 1103.99167758 1615.59047423 1097.59082031 1606.19873047 C1091.93479759 1597.9011907 1086.26571155 1589.61264083 1080.59277344 1581.32666016 C1077.89439623 1577.38497795 1075.19726826 1573.4424411 1072.5 1569.5 C1071.4166725 1567.91666268 1070.33333917 1566.33332934 1069.25 1564.75 C1062.75 1555.25 1056.25 1545.75 1049.75 1536.25 C1049.21391113 1535.4664917 1048.67782227 1534.6829834 1048.12548828 1533.87573242 C1047.04050401 1532.28997365 1045.95554313 1530.70419887 1044.87060547 1529.1184082 C1042.18772155 1525.19705358 1039.50445193 1521.2759641 1036.8203125 1517.35546875 C1030.40011045 1507.97693831 1023.99167758 1498.59047423 1017.59082031 1489.19873047 C1011.93479759 1480.9011907 1006.26571155 1472.61264083 1000.59277344 1464.32666016 C997.89439623 1460.38497795 995.19726826 1456.4424411 992.5 1452.5 C991.4166725 1450.91666268 990.33333917 1449.33332934 989.25 1447.75 C987.08333333 1444.58333333 984.91666667 1441.41666667 982.75 1438.25 C982.21391113 1437.4664917 981.67782227 1436.6829834 981.12548828 1435.87573242 C980.04050401 1434.28997365 978.95554313 1432.70419887 977.87060547 1431.1184082 C975.18772155 1427.19705358 972.50445193 1423.2759641 969.8203125 1419.35546875 C963.40011045 1409.97693831 956.99167758 1400.59047423 950.59082031 1391.19873047 C944.93479759 1382.9011907 939.26571155 1374.61264083 933.59277344 1366.32666016 C930.89439623 1362.38497795 928.19726826 1358.4424411 925.5 1354.5 C924.4166725 1352.91666268 923.33333917 1351.33332934 922.25 1349.75 C915.75 1340.25 909.25 1330.75 902.75 1321.25 C902.21391113 1320.4664917 901.67782227 1319.6829834 901.12548828 1318.87573242 C900.04050401 1317.28997365 898.95554313 1315.70419887 897.87060547 1314.1184082 C895.18772155 1310.19705358 892.50445193 1306.2759641 889.8203125 1302.35546875 C883.40011045 1292.97693831 876.99167758 1283.59047423 870.59082031 1274.19873047 C864.93479759 1265.9011907 859.26571155 1257.61264083 853.59277344 1249.32666016 C850.89439623 1245.38497795 848.19726826 1241.4424411 845.5 1237.5 C844.4166725 1235.91666268 843.33333917 1234.33332934 842.25 1232.75 C835.75 1223.25 829.25 1213.75 822.75 1204.25 C822.21391113 1203.4664917 821.67782227 1202.6829834 821.12548828 1201.87573242 C820.04050401 1200.28997365 818.95554313 1198.70419887 817.87060547 1197.1184082 C815.18772155 1193.19705358 812.50445193 1189.2759641 809.8203125 1185.35546875 C803.40011045 1175.97693831 796.99167758 1166.59047423 790.59082031 1157.19873047 C784.93479759 1148.9011907 779.26571155 1140.61264083 773.59277344 1132.32666016 C770.89439623 1128.38497795 768.19726826 1124.4424411 765.5 1120.5 C764.4166725 1118.91666268 763.33333917 1117.33332934 762.25 1115.75 C760.08333333 1112.58333333 757.91666667 1109.41666667 755.75 1106.25 C755.21391113 1105.4664917 754.67782227 1104.6829834 754.12548828 1103.87573242 C753.04050401 1102.28997365 751.95554313 1100.70419887 750.87060547 1099.1184082 C748.18772155 1095.19705358 745.50445193 1091.2759641 742.8203125 1087.35546875 C736.40011045 1077.97693831 729.99167758 1068.59047423 723.59082031 1059.19873047 C717.93479759 1050.9011907 712.26571155 1042.61264083 706.59277344 1034.32666016 C703.89439623 1030.38497795 701.19726826 1026.4424411 698.5 1022.5 C697.4166725 1020.91666268 696.33333917 1019.33332934 695.25 1017.75 C685.5 1003.5 685.5 1003.5 675.75 989.25 C675.21391113 988.4664917 674.67782227 987.6829834 674.12548828 986.87573242 C673.04050401 985.28997365 671.95554313 983.70419887 670.87060547 982.1184082 C668.18772155 978.19705358 665.50445193 974.2759641 662.8203125 970.35546875 C656.40011045 960.97693831 649.99167758 951.59047423 643.59082031 942.19873047 C637.93479759 933.9011907 632.26571155 925.61264083 626.59277344 917.32666016 C623.89439623 913.38497795 621.19726826 909.4424411 618.5 905.5 C617.4166725 903.91666268 616.33333917 902.33332934 615.25 900.75 C608.75 891.25 602.25 881.75 595.75 872.25 C595.21391113 871.4664917 594.67782227 870.6829834 594.12548828 869.87573242 C593.04050401 868.28997365 591.95554313 866.70419887 590.87060547 865.1184082 C588.18772155 861.19705358 585.50445193 857.2759641 582.8203125 853.35546875 C576.40011045 843.97693831 569.99167758 834.59047423 563.59082031 825.19873047 C557.93479759 816.9011907 552.26571155 808.61264083 546.59277344 800.32666016 C543.89439623 796.38497795 541.19726826 792.4424411 538.5 788.5 C537.4166725 786.91666268 536.33333917 785.33332934 535.25 783.75 C528.75 774.25 522.25 764.75 515.75 755.25 C515.21391113 754.4664917 514.67782227 753.6829834 514.12548828 752.87573242 C513.04050401 751.28997365 511.95554313 749.70419887 510.87060547 748.1184082 C508.18772155 744.19705358 505.50445193 740.2759641 502.8203125 736.35546875 C496.40011045 726.97693831 489.99167758 717.59047423 483.59082031 708.19873047 C477.93479759 699.9011907 472.26571155 691.61264083 466.59277344 683.32666016 C463.89439623 679.38497795 461.19726826 675.4424411 458.5 671.5 C457.4166725 669.91666268 456.33333917 668.33332934 455.25 666.75 C448.75 657.25 442.25 647.75 435.75 638.25 C435.21391113 637.4664917 434.67782227 636.6829834 434.12548828 635.87573242 C433.04050401 634.28997365 431.95554313 632.70419887 430.87060547 631.1184082 C428.18772155 627.19705358 425.50445193 623.2759641 422.8203125 619.35546875 C416.40011045 609.97693831 409.99167758 600.59047423 403.59082031 591.19873047 C397.93479759 582.9011907 392.26571155 574.61264083 386.59277344 566.32666016 C383.89439623 562.38497795 381.19726826 558.4424411 378.5 554.5 C377.4166725 552.91666268 376.33333917 551.33332934 375.25 549.75 C359 526 359 526 342.75 502.25 C342.21391113 501.4664917 341.67782227 500.6829834 341.12548828 499.87573242 C340.04050401 498.28997365 338.95554313 496.70419887 337.87060547 495.1184082 C335.18772155 491.19705358 332.50445193 487.2759641 329.8203125 483.35546875 C323.40011045 473.97693831 316.99167758 464.59047423 310.59082031 455.19873047 C304.93479759 446.9011907 299.26571155 438.61264083 293.59277344 430.32666016 C290.89439623 426.38497795 288.19726826 422.4424411 285.5 418.5 C284.4166725 416.91666268 283.33333917 415.33332934 282.25 413.75 C275.75 404.25 269.25 394.75 262.75 385.25 C262.21391113 384.4664917 261.67782227 383.6829834 261.12548828 382.87573242 C260.04050401 381.28997365 258.95554313 379.70419887 257.87060547 378.1184082 C255.18772155 374.19705358 252.50445193 370.2759641 249.8203125 366.35546875 C243.40011045 356.97693831 236.99167758 347.59047423 230.59082031 338.19873047 C224.93479759 329.9011907 219.26571155 321.61264083 213.59277344 313.32666016 C210.89439623 309.38497795 208.19726826 305.4424411 205.5 301.5 C204.4166725 299.91666268 203.33333917 298.33332934 202.25 296.75 C191.41666667 280.91666667 180.58333333 265.08333333 169.75 249.25 C169.21391113 248.4664917 168.67782227 247.6829834 168.12548828 246.87573242 C167.04050401 245.28997365 165.95554313 243.70419887 164.87060547 242.1184082 C162.18772155 238.19705358 159.50445193 234.2759641 156.8203125 230.35546875 C150.40011045 220.97693831 143.99167758 211.59047423 137.59082031 202.19873047 C131.93479759 193.9011907 126.26571155 185.61264083 120.59277344 177.32666016 C117.89439623 173.38497795 115.19726826 169.4424411 112.5 165.5 C111.4166725 163.91666268 110.33333917 162.33332934 109.25 160.75 C99.5 146.5 99.5 146.5 89.75 132.25 C89.21391113 131.4664917 88.67782227 130.6829834 88.12548828 129.87573242 C87.04050401 128.28997365 85.95554313 126.70419887 84.87060547 125.1184082 C82.18772155 121.19705358 79.50445193 117.2759641 76.8203125 113.35546875 C70.40011045 103.97693831 63.99167758 94.59047423 57.59082031 85.19873047 C51.93479759 76.9011907 46.26571155 68.61264083 40.59277344 60.32666016 C37.89439623 56.38497795 35.19726826 52.4424411 32.5 48.5 C31.4166725 46.91666268 30.33333917 45.33332934 29.25 43.75 C27.08333333 40.58333333 24.91666667 37.41666667 22.75 34.25 C22.21270264 33.4647998 21.67540527 32.67959961 21.12182617 31.87060547 C20.04876825 30.30212852 18.97600965 28.73344675 17.90356445 27.16455078 C15.04055839 22.9771046 12.17102399 18.79430757 9.29296875 14.6171875 C8.38804687 13.30137695 8.38804687 13.30137695 7.46484375 11.95898438 C6.298759 10.26367654 5.13085051 8.56962138 3.9609375 6.87695312 C3.44144531 6.12091797 2.92195312 5.36488281 2.38671875 4.5859375 C1.92483154 3.9161084 1.46294434 3.2462793 0.98706055 2.55615234 C0 1 0 1 0 0 Z " fill="#003265" transform="translate(906,1033)"/>
<path d="M0 0 C2.43144088 0.37533762 3.69220731 0.66679808 5.38682556 2.50131226 C5.80565506 3.15105011 6.22448456 3.80078796 6.65600586 4.47021484 C7.38762939 5.58561897 7.38762939 5.58561897 8.1340332 6.72355652 C8.65570068 7.54439224 9.17736816 8.36522797 9.71484375 9.2109375 C10.55450684 10.49977592 10.55450684 10.49977592 11.41113281 11.81465149 C12.62628513 13.68227809 13.8361865 15.55332916 15.04147339 17.42733765 C18.26518657 22.43909113 21.52630145 27.42647007 24.78125 32.41796875 C25.45308823 33.45071426 26.12492645 34.48345978 26.81712341 35.54750061 C34.06719356 46.67755318 41.4912021 57.68815537 48.9375 68.6875 C50.1685972 70.50760998 51.39963709 72.32775872 52.63061523 74.14794922 C54.29932619 76.61529247 55.96833442 79.08242572 57.6394043 81.548172 C61.11757335 86.68248717 64.56642272 91.83576204 68 97 C67.67 97.66 67.34 98.32 67 99 C61.52476346 91.59775522 56.3125034 84.06417927 51.25 76.375 C46.59530457 69.34554792 41.90592017 62.35675288 37 55.5 C31.39991075 47.67304262 26.07330921 39.67260556 20.78125 31.63476562 C16.91667143 25.78684134 12.91097246 20.07825298 8.76269531 14.42822266 C6.73335649 11.63268194 4.84052998 8.79769344 3 5.875 C2.4225 4.96492188 1.845 4.05484375 1.25 3.1171875 C0 1 0 1 0 0 Z " fill="#E99904" transform="translate(2033,1420)"/>
<path d="M0 0 C0.66 0 1.32 0 2 0 C3.30781555 1.62330627 3.30781555 1.62330627 4.80981445 3.92797852 C5.37412674 4.78629776 5.93843903 5.644617 6.51985168 6.52894592 C7.12818344 7.46943283 7.7365152 8.40991974 8.36328125 9.37890625 C8.99227829 10.33893051 9.62127533 11.29895477 10.26933289 12.28807068 C12.29029848 15.37530627 14.30167762 18.46865027 16.3125 21.5625 C18.31447086 24.63010201 20.31839293 27.69641576 22.3235321 30.76194763 C23.57238947 32.67262923 24.81908608 34.58472541 26.06330872 36.49842834 C29.26890013 41.41705189 32.54615701 46.25213286 36 51 C35.505 51.99 35.505 51.99 35 53 C29.50961993 45.57440405 24.27190016 38.02074204 19.1875 30.3125 C13.91978714 22.35533806 8.61369615 14.43404628 3.09838867 6.64575195 C0 2.21491748 0 2.21491748 0 0 Z " fill="#DD9206" transform="translate(2065,1466)"/>
</svg>
